<svg width="132" height="24" viewBox="0 0 132 24" fill="none" xmlns="http://www.w3.org/2000/svg">
<path d="M16.017 2H7.947C6.37015 2.00185 4.85844 2.62914 3.74353 3.74424C2.62862 4.85933 2.00159 6.37115 2 7.948L2 16.018C2.00185 17.5948 2.62914 19.1066 3.74424 20.2215C4.85933 21.3364 6.37115 21.9634 7.948 21.965H16.018C17.5948 21.9631 19.1066 21.3359 20.2215 20.2208C21.3364 19.1057 21.9634 17.5938 21.965 16.017V7.947C21.9631 6.37015 21.3359 4.85844 20.2208 3.74353C19.1057 2.62862 17.5938 2.00159 16.017 2V2ZM19.957 16.017C19.957 16.5344 19.8551 17.0468 19.6571 17.5248C19.4591 18.0028 19.1689 18.4371 18.803 18.803C18.4371 19.1689 18.0028 19.4591 17.5248 19.6571C17.0468 19.8551 16.5344 19.957 16.017 19.957H7.947C6.90222 19.9567 5.90032 19.5415 5.16165 18.8026C4.42297 18.0638 4.008 17.0618 4.008 16.017V7.947C4.00827 6.90222 4.42349 5.90032 5.16235 5.16165C5.90122 4.42297 6.90322 4.008 7.948 4.008H16.018C17.0628 4.00827 18.0647 4.42349 18.8034 5.16235C19.542 5.90122 19.957 6.90322 19.957 7.948V16.018V16.017Z" fill="#295941"/>
<path d="M11.9818 6.81897C10.6133 6.82109 9.30136 7.36576 8.33372 8.33358C7.36609 9.3014 6.82168 10.6134 6.81982 11.982C6.82141 13.3509 7.36585 14.6633 8.33372 15.6314C9.3016 16.5994 10.6139 17.1441 11.9828 17.146C13.3519 17.1444 14.6645 16.5998 15.6326 15.6317C16.6007 14.6636 17.1452 13.3511 17.1468 11.982C17.1447 10.6131 16.5998 9.30085 15.6315 8.33316C14.6633 7.36547 13.3507 6.82129 11.9818 6.81997V6.81897ZM11.9818 15.138C11.1451 15.138 10.3426 14.8056 9.7509 14.2139C9.15922 13.6222 8.82682 12.8197 8.82682 11.983C8.82682 11.1462 9.15922 10.3437 9.7509 9.75205C10.3426 9.16037 11.1451 8.82797 11.9818 8.82797C12.8186 8.82797 13.6211 9.16037 14.2127 9.75205C14.8044 10.3437 15.1368 11.1462 15.1368 11.983C15.1368 12.8197 14.8044 13.6222 14.2127 14.2139C13.6211 14.8056 12.8186 15.138 11.9818 15.138Z" fill="#295941"/>
<path d="M17.1559 8.09497C17.8391 8.09497 18.3929 7.54115 18.3929 6.85797C18.3929 6.1748 17.8391 5.62097 17.1559 5.62097C16.4728 5.62097 15.9189 6.1748 15.9189 6.85797C15.9189 7.54115 16.4728 8.09497 17.1559 8.09497Z" fill="#295941"/>
<path d="M36.14 17V6.5H38.285V17H36.14ZM48.0642 6.5H50.2092V17H47.7342L43.1742 9.65L43.3692 12.605V17H41.2242V6.5H43.6842L48.2592 13.85L48.0642 10.895V6.5ZM56.9323 10.595C57.7023 10.755 58.3223 10.915 58.7923 11.075C59.2623 11.235 59.6923 11.44 60.0823 11.69C60.4723 11.93 60.7473 12.23 60.9073 12.59C61.0773 12.95 61.1623 13.385 61.1623 13.895C61.1623 14.475 61.0373 14.99 60.7873 15.44C60.5473 15.88 60.2223 16.22 59.8123 16.46C59.4123 16.7 58.9873 16.88 58.5373 17C58.0973 17.12 57.6423 17.18 57.1723 17.18C55.7423 17.18 54.6523 16.845 53.9023 16.175C53.1623 15.495 52.7273 14.645 52.5973 13.625H54.7573C54.9073 14.165 55.1623 14.56 55.5223 14.81C55.8923 15.06 56.4373 15.185 57.1573 15.185C57.7573 15.185 58.2123 15.08 58.5223 14.87C58.8423 14.66 59.0023 14.365 59.0023 13.985C59.0023 13.745 58.9123 13.555 58.7323 13.415C58.5623 13.265 58.3523 13.155 58.1023 13.085C57.8523 13.015 57.4073 12.91 56.7673 12.77C56.7173 12.76 56.6773 12.755 56.6473 12.755C56.6273 12.745 56.5923 12.735 56.5423 12.725C56.5023 12.715 56.4623 12.705 56.4223 12.695C55.8823 12.585 55.4273 12.465 55.0573 12.335C54.6873 12.205 54.3223 12.025 53.9623 11.795C53.6023 11.565 53.3273 11.27 53.1373 10.91C52.9573 10.55 52.8673 10.12 52.8673 9.62C52.8673 8.58 53.2573 7.77 54.0373 7.19C54.8173 6.61 55.7473 6.32 56.8273 6.32C58.1473 6.32 59.1473 6.625 59.8273 7.235C60.5173 7.835 60.9273 8.615 61.0573 9.575H58.8823C58.6223 8.735 57.9423 8.315 56.8423 8.315C56.2323 8.315 55.7773 8.43 55.4773 8.66C55.1773 8.88 55.0273 9.17 55.0273 9.53C55.0273 9.82 55.1523 10.03 55.4023 10.16C55.6623 10.29 56.1723 10.435 56.9323 10.595ZM71.026 6.5V8.54H67.996V17H65.851V8.54H62.836V6.5H71.026ZM79.6007 17L78.7157 14.525H74.4707L73.5707 17H71.3057L75.2357 6.5H77.9507L81.8807 17H79.6007ZM75.2057 12.485H77.9657L76.5857 8.675L75.2057 12.485ZM87.9666 11.3H93.7116V17H91.8816V15.23C91.6316 15.81 91.1916 16.28 90.5616 16.64C89.9416 17 89.2016 17.18 88.3416 17.18C86.8616 17.18 85.6216 16.67 84.6216 15.65C83.6216 14.62 83.1216 13.325 83.1216 11.765C83.1216 10.195 83.6316 8.895 84.6516 7.865C85.6816 6.835 86.9816 6.32 88.5516 6.32C89.7916 6.32 90.8666 6.66 91.7766 7.34C92.6966 8.01 93.3116 8.89 93.6216 9.98H91.3266C91.0766 9.47 90.7066 9.075 90.2166 8.795C89.7366 8.505 89.1766 8.36 88.5366 8.36C87.5666 8.36 86.7816 8.68 86.1816 9.32C85.5816 9.96 85.2816 10.785 85.2816 11.795C85.2816 12.775 85.5666 13.59 86.1366 14.24C86.7166 14.88 87.5066 15.2 88.5066 15.2C89.2366 15.2 89.8716 15.015 90.4116 14.645C90.9516 14.275 91.3116 13.76 91.4916 13.1H87.9666V11.3ZM102.715 17L100 13.22H98.8153V17H96.6703V6.5H101.185C102.305 6.5 103.18 6.81 103.81 7.43C104.45 8.04 104.77 8.87 104.77 9.92C104.77 10.76 104.565 11.445 104.155 11.975C103.745 12.505 103.165 12.865 102.415 13.055L105.355 17H102.715ZM98.8153 8.54V11.345H100.945C101.495 11.345 101.905 11.225 102.175 10.985C102.455 10.735 102.595 10.39 102.595 9.95C102.595 9.51 102.455 9.165 102.175 8.915C101.895 8.665 101.485 8.54 100.945 8.54H98.8153ZM115.22 17L114.335 14.525H110.09L109.19 17H106.925L110.855 6.5H113.57L117.5 17H115.22ZM110.825 12.485H113.585L112.205 8.675L110.825 12.485ZM127.576 6.5H130.051V17H127.906V9.47L124.981 13.895H124.786L121.876 9.47V17H119.731V6.5H122.191L124.891 10.535L127.576 6.5Z" fill="#295941"/>
</svg>
